<svg width="643" height="477" viewBox="0 0 643 477" fill="none" xmlns="http://www.w3.org/2000/svg">
<path d="M555.11 53.1102C569.513 53.1102 581.19 41.4338 581.19 27.0302C581.19 12.6266 569.513 0.950195 555.11 0.950195C540.706 0.950195 529.03 12.6266 529.03 27.0302C529.03 41.4338 540.706 53.1102 555.11 53.1102Z" fill="#D9BD2E"/>
<path d="M386.91 65.01C401.341 65.01 413.04 53.3112 413.04 38.88C413.04 24.4488 401.341 12.75 386.91 12.75C372.479 12.75 360.78 24.4488 360.78 38.88C360.78 53.3112 372.479 65.01 386.91 65.01Z" fill="#3C5C98"/>
<path d="M561.82 88.14C552.56 85.4933 543.143 86.3633 533.57 90.75C525.54 94.43 519.05 99.96 512.21 105.86C497.79 118.29 480.2 126.65 461.32 126.75C444.14 126.84 427.79 119.22 413.74 108.41C413.576 108.285 413.439 108.128 413.336 107.949C413.233 107.77 413.167 107.573 413.141 107.368C413.115 107.164 413.13 106.956 413.184 106.757C413.239 106.558 413.333 106.372 413.46 106.21C418.69 99.55 423.94 92.86 430.82 87.95C432.03 87.09 433.06 87.19 434.34 88.02C442.68 93.44 450.76 97.99 460.66 98.2C471.98 98.43 483.11 91.67 491.97 84.71C499.4 78.88 506.86 72.15 514.75 67.53C525.763 61.07 537.673 57.6333 550.48 57.22C583.33 56.17 608.21 79.6 619.58 108.51C619.664 108.724 619.672 108.961 619.603 109.178C619.533 109.395 619.391 109.58 619.2 109.7C611.713 114.46 604.217 118.34 596.71 121.34C596.325 121.495 595.896 121.497 595.508 121.347C595.12 121.197 594.803 120.905 594.62 120.53C587.73 106.43 577.65 92.67 561.82 88.14Z" fill="#D9BD2E"/>
<path d="M351.2 128.31C350.56 129.724 349.896 131.114 349.21 132.48C349.028 132.846 348.71 133.126 348.322 133.262C347.934 133.398 347.507 133.38 347.13 133.21L324.18 122.91C323.08 122.417 322.77 121.62 323.25 120.52C332.37 99.5602 346.33 80.2202 368.55 72.2702C387.19 65.6002 410.41 69.1502 426.05 81.1202C426.996 81.8402 427.04 82.6102 426.18 83.4302L407.91 100.83C407.642 101.084 407.307 101.255 406.945 101.324C406.584 101.393 406.21 101.357 405.87 101.22C380.73 91.1002 361.19 106.27 351.2 128.31Z" fill="#3C5C98"/>
<path d="M449.55 203.17C449.276 204.517 449.533 204.627 450.32 203.5C461.08 188.18 475.19 173.65 492.66 166.87C503.95 162.5 519.95 162.59 530.84 168.62C550.59 179.57 546.68 208.09 543.22 226.25C543.204 226.324 543.207 226.401 543.226 226.474C543.245 226.548 543.281 226.616 543.331 226.674C543.382 226.731 543.444 226.777 543.515 226.808C543.586 226.838 543.663 226.853 543.74 226.85C547.533 226.73 551.536 226.683 555.75 226.71C562.78 226.77 568.01 224.74 568.45 216.87C568.89 209 568.5 201.1 570.5 192.92C573.89 179.04 582.85 168.02 596.97 165.47C608.66 163.37 620.28 165.37 628.88 173.79C642.75 187.4 643.76 212.23 637.6 228.9C631.15 246.37 615.92 253.03 598.04 250.43C590.19 249.29 583.02 244.78 578.68 238.14C578.63 238.064 578.562 238.001 578.482 237.959C578.401 237.916 578.311 237.895 578.219 237.897C578.127 237.899 578.037 237.924 577.957 237.97C577.876 238.016 577.809 238.082 577.76 238.16C572.66 246.69 564.91 249.1 555.55 249.1C511.963 249.093 468.38 249.137 424.8 249.23C417.17 249.25 409.78 248.98 402.59 246.21C392.416 242.297 385.863 235.54 382.93 225.94C381.91 222.58 381.406 217.607 381.42 211.02C381.506 181.887 381.516 152.367 381.45 122.46C381.45 121.94 381.71 121.677 382.23 121.67L402.92 121.6C402.985 121.6 403.049 121.613 403.11 121.638C403.17 121.662 403.224 121.699 403.27 121.744C403.315 121.79 403.351 121.844 403.375 121.903C403.399 121.963 403.411 122.026 403.41 122.09C403.356 153.243 403.36 184.297 403.42 215.25C403.44 223.22 409.66 226.28 416.66 226.58C420.7 226.753 424.833 226.803 429.06 226.73C429.175 226.727 429.284 226.679 429.364 226.595C429.445 226.511 429.49 226.398 429.49 226.28L429.45 172.19C429.45 172.103 429.467 172.018 429.5 171.938C429.533 171.857 429.582 171.785 429.643 171.723C429.704 171.662 429.777 171.614 429.857 171.58C429.937 171.547 430.023 171.53 430.11 171.53L451.02 171.52C451.134 171.52 451.243 171.566 451.324 171.649C451.404 171.731 451.45 171.843 451.45 171.96C451.403 178.467 451.373 185.007 451.36 191.58C451.35 195.45 450.32 199.34 449.55 203.17ZM602.9 184.46C589.57 186.19 588.8 204.15 590.48 214.45C591.58 221.24 595.02 227.53 602.31 228.71C620.12 231.59 621.15 210.44 619.28 198.99C617.85 190.21 612.56 183.2 602.9 184.46ZM509.42 185.95C496.75 184.68 482.95 193.95 473.34 202.92C465.94 209.82 459.326 217.547 453.5 226.1C453.458 226.164 453.433 226.238 453.429 226.314C453.425 226.39 453.441 226.465 453.476 226.532C453.511 226.599 453.564 226.655 453.628 226.693C453.692 226.731 453.765 226.751 453.84 226.75L519.08 226.74C519.226 226.74 519.367 226.692 519.481 226.603C519.596 226.514 519.676 226.39 519.71 226.25C521.176 220.23 522.286 214.247 523.04 208.3C524.42 197.43 522.75 187.29 509.42 185.95Z" fill="#3C5C98"/>
<path d="M339.83 226.2C339.89 219.62 339.88 212.99 339.8 206.31C339.76 203.01 339.336 199.833 338.53 196.78C335.92 186.87 328.92 184.99 319.58 185.02C314.046 185.033 308.566 185.047 303.14 185.06C303.036 185.06 302.937 185.018 302.864 184.943C302.791 184.868 302.75 184.766 302.75 184.66L302.76 165.86C302.76 165.44 302.97 165.223 303.39 165.21C313.223 164.977 320.513 165.02 325.26 165.34C351.41 167.1 361.27 185.61 361.33 209.69C361.37 222.67 361.396 235.607 361.41 248.5C361.41 248.576 361.395 248.652 361.366 248.722C361.336 248.792 361.294 248.856 361.24 248.91C361.186 248.964 361.122 249.007 361.052 249.036C360.981 249.065 360.906 249.08 360.83 249.08L303.05 249.14C302.968 249.14 302.889 249.107 302.831 249.049C302.772 248.991 302.74 248.912 302.74 248.83L302.79 227.25C302.79 226.91 302.96 226.74 303.3 226.74L339.26 226.76C339.409 226.76 339.553 226.701 339.659 226.597C339.766 226.492 339.827 226.35 339.83 226.2Z" fill="#3C5C98"/>
<path d="M282.71 233.6C282.75 259.16 273.78 285.23 246.19 290.08C242.283 290.774 237.333 291.08 231.34 291C230.847 291 230.6 290.754 230.6 290.26V272.33C230.6 272.256 230.628 272.185 230.679 272.132C230.73 272.08 230.798 272.05 230.87 272.05C234.8 271.97 239.01 271.71 242.78 270.5C261.45 264.54 260.78 240.01 260.76 224.62C260.74 209.474 260.737 193.794 260.75 177.58C260.75 177.495 260.784 177.414 260.844 177.354C260.904 177.294 260.985 177.26 261.07 177.26L282.08 177.24C282.527 177.24 282.75 177.464 282.75 177.91C282.697 197.21 282.683 215.774 282.71 233.6Z" fill="#3C5C98"/>
<path d="M540.52 284.33C540.552 284.352 540.59 284.365 540.629 284.367C540.668 284.37 540.706 284.361 540.741 284.342C540.775 284.323 540.803 284.296 540.823 284.262C540.842 284.228 540.851 284.189 540.85 284.15L540.81 263.49C540.81 263.288 540.889 263.095 541.03 262.953C541.17 262.81 541.361 262.73 541.56 262.73L556.01 262.78C556.169 262.78 556.322 262.843 556.434 262.956C556.547 263.068 556.61 263.221 556.61 263.38C556.537 280.96 556.54 297.797 556.62 313.89C556.633 317.417 556.747 320.967 556.96 324.54C556.98 324.873 556.823 325.04 556.49 325.04L543.57 325.07C543.439 325.07 543.309 325.041 543.19 324.987C543.07 324.932 542.964 324.853 542.877 324.754C542.79 324.655 542.725 324.538 542.686 324.411C542.647 324.285 542.634 324.152 542.65 324.02C542.79 322.84 542.727 321.623 542.46 320.37C542.442 320.285 542.4 320.206 542.339 320.144C542.278 320.082 542.2 320.038 542.115 320.018C542.03 319.998 541.941 320.003 541.859 320.032C541.777 320.06 541.704 320.112 541.65 320.18C535.66 327.79 524.36 327.67 517.48 321.19C510.62 314.71 509.56 302.69 512.51 294.12C516.61 282.19 529.83 277.21 540.52 284.33ZM540.841 299.675C540.852 298.843 540.7 298.016 540.392 297.243C540.084 296.469 539.627 295.764 539.047 295.167C538.466 294.57 537.774 294.093 537.009 293.764C536.244 293.435 535.422 293.259 534.59 293.247L533.65 293.234C532.818 293.223 531.991 293.375 531.217 293.683C530.444 293.991 529.738 294.448 529.141 295.029C528.545 295.609 528.068 296.301 527.739 297.066C527.409 297.831 527.234 298.653 527.222 299.485L527.119 306.865C527.107 307.697 527.26 308.524 527.568 309.297C527.876 310.071 528.333 310.776 528.913 311.373C529.494 311.97 530.186 312.447 530.951 312.776C531.715 313.105 532.537 313.281 533.37 313.292L534.31 313.306C535.142 313.317 535.969 313.165 536.743 312.857C537.516 312.549 538.221 312.092 538.818 311.511C539.415 310.931 539.892 310.239 540.221 309.474C540.551 308.709 540.726 307.887 540.738 307.055L540.841 299.675Z" fill="#D9BD2E"/>
<path d="M334.24 301.73C334.513 302.883 334.78 302.883 335.04 301.73C337.613 290.383 340.616 278.847 344.05 267.12C344.149 266.788 344.352 266.497 344.629 266.29C344.907 266.083 345.244 265.971 345.59 265.97L364.23 266.01C364.478 266.01 364.716 266.105 364.895 266.277C365.074 266.448 365.18 266.682 365.19 266.93L368.06 324.48C368.064 324.545 368.054 324.609 368.032 324.67C368.01 324.731 367.976 324.787 367.931 324.835C367.886 324.883 367.832 324.921 367.771 324.948C367.711 324.974 367.646 324.989 367.58 324.99L353.51 325.1C353.07 325.107 352.843 324.89 352.83 324.45C352.256 310.343 351.89 296.14 351.73 281.84C351.73 281.687 351.67 281.573 351.55 281.5C351.516 281.487 351.48 281.48 351.44 281.48C351.333 281.493 351.263 281.557 351.23 281.67C347.576 295.31 343.713 309.04 339.64 322.86C339.44 323.54 338.98 323.883 338.26 323.89L327.84 323.9C327.386 323.9 327.107 323.68 327 323.24C323.473 309.493 320.403 295.95 317.79 282.61C317.773 282.526 317.729 282.45 317.664 282.392C317.599 282.334 317.517 282.299 317.43 282.29C317.15 282.263 317.007 282.337 317 282.51C316.6 295.857 316.063 309.903 315.39 324.65C315.383 324.863 315.273 324.97 315.06 324.97L302.04 325.11C301.273 325.117 300.913 324.74 300.96 323.98L304.49 266.28C304.495 266.188 304.535 266.101 304.602 266.038C304.669 265.975 304.758 265.94 304.85 265.94L324.83 266C325.53 266.007 325.96 266.35 326.12 267.03L334.24 301.73Z" fill="#D9BD2E"/>
<path d="M401.51 322.05C401.498 321.982 401.468 321.918 401.425 321.865C401.381 321.811 401.325 321.77 401.261 321.745C401.198 321.719 401.129 321.711 401.062 321.721C400.996 321.731 400.933 321.758 400.88 321.8C396.02 325.547 390.883 326.82 385.47 325.62C376.03 323.54 372.22 313.32 376.64 305.07C380.53 297.81 391.1 295.77 398.66 295.77C399.753 295.77 400.113 295.26 399.74 294.24C399.633 293.96 399.47 293.72 399.25 293.52C398.35 292.727 397.233 292.233 395.9 292.04C391.247 291.36 386.527 292.077 381.74 294.19C380.98 294.517 380.487 294.287 380.26 293.5L377.95 285.42C377.9 285.241 377.916 285.049 377.995 284.882C378.074 284.715 378.211 284.583 378.38 284.51C384.74 281.757 391.303 280.617 398.07 281.09C409.89 281.93 415.77 288.75 415.6 300.32C415.5 307.193 415.547 313.83 415.74 320.23C415.78 321.617 415.967 323 416.3 324.38C416.32 324.459 416.321 324.542 416.304 324.622C416.287 324.702 416.252 324.777 416.202 324.841C416.152 324.906 416.088 324.958 416.015 324.994C415.942 325.03 415.862 325.049 415.78 325.05L402.78 325.08C402.573 325.081 402.373 325.008 402.214 324.874C402.055 324.741 401.947 324.555 401.91 324.35L401.51 322.05ZM393.44 306.48C389.69 308.05 388.72 314.78 394.01 314.94C399.85 315.11 401.09 310.84 400.18 306.04C400.153 305.885 400.072 305.744 399.952 305.64C399.832 305.536 399.68 305.476 399.52 305.47C397.253 305.397 395.227 305.733 393.44 306.48Z" fill="#D9BD2E"/>
<path d="M440.52 310.35C433.01 307.81 424.06 304.76 424.19 295.35C424.27 289.26 428.11 284.9 433.66 282.62C439.98 280.03 448.02 280.82 454.41 282.88C455.256 283.153 455.58 283.723 455.38 284.59L453.41 293.2C453.384 293.311 453.334 293.416 453.263 293.506C453.193 293.596 453.103 293.669 453.001 293.721C452.899 293.772 452.787 293.801 452.673 293.804C452.558 293.807 452.445 293.785 452.34 293.74C448.91 292.24 443.47 290.79 439.98 292.73C439.764 292.849 439.58 293.017 439.442 293.221C439.305 293.425 439.218 293.659 439.188 293.903C439.159 294.147 439.188 294.395 439.274 294.626C439.359 294.857 439.498 295.064 439.68 295.23C441.77 297.15 446.03 298.26 448.69 299.36C454.576 301.8 457.483 306 457.41 311.96C457.3 320.92 449.62 324.87 441.79 325.65C435.796 326.243 429.903 325.563 424.11 323.61C423.85 323.521 423.633 323.34 423.496 323.101C423.36 322.862 423.315 322.581 423.37 322.31L425.35 312.83C425.379 312.689 425.44 312.557 425.529 312.443C425.617 312.33 425.73 312.238 425.86 312.175C425.989 312.113 426.131 312.08 426.275 312.081C426.419 312.082 426.561 312.116 426.69 312.18C431.503 314.587 436.21 315.41 440.81 314.65C441.1 314.603 441.376 314.49 441.618 314.321C441.859 314.153 442.059 313.932 442.204 313.675C442.349 313.417 442.434 313.131 442.454 312.836C442.474 312.541 442.428 312.245 442.32 311.97C442.013 311.19 441.413 310.65 440.52 310.35Z" fill="#D9BD2E"/>
<path d="M489.28 322.58C489.113 321.833 488.723 321.693 488.11 322.16C480.63 327.85 470.13 327.59 464.49 319.73C463.45 318.27 462.81 316.43 462.57 314.21C461.03 299.97 475.2 295.79 486.4 295.81C486.581 295.81 486.76 295.761 486.915 295.667C487.071 295.574 487.199 295.44 487.284 295.28C487.369 295.119 487.409 294.939 487.4 294.757C487.39 294.576 487.331 294.4 487.23 294.25C486.456 293.103 485.373 292.397 483.98 292.13C479.013 291.19 474.106 291.917 469.26 294.31C469.131 294.374 468.989 294.409 468.845 294.412C468.701 294.416 468.558 294.387 468.426 294.329C468.295 294.271 468.177 294.184 468.083 294.075C467.988 293.967 467.919 293.838 467.88 293.7L465.67 286.05C465.557 285.668 465.593 285.257 465.769 284.9C465.945 284.542 466.248 284.264 466.62 284.12C477.29 279.98 496.17 277.73 501.76 291.19C502.84 293.79 503.32 297.863 503.2 303.41C503.05 310.59 503.11 317.62 503.8 324.71C503.804 324.758 503.798 324.807 503.783 324.853C503.768 324.899 503.743 324.942 503.711 324.977C503.679 325.013 503.64 325.042 503.597 325.061C503.554 325.08 503.507 325.09 503.46 325.09L490.51 325.01C490.05 325.01 489.77 324.787 489.67 324.34L489.28 322.58ZM484.58 314.59C488.07 313.24 488.47 309.38 487.91 306.1C487.843 305.727 487.626 305.527 487.26 305.5C482.5 305.14 477.26 306.73 477.98 312.68C478.024 313.034 478.199 313.361 478.47 313.6C480.216 315.16 482.253 315.49 484.58 314.59Z" fill="#D9BD2E"/>
<path d="M579.88 310.37C582.77 316.02 596.24 314.29 600.91 313.16C601.87 312.927 602.423 313.297 602.57 314.27L603.86 322.69C603.888 322.866 603.851 323.047 603.758 323.199C603.665 323.351 603.52 323.465 603.35 323.52C594.71 326.23 584.35 326.99 576.27 323.75C567.03 320.05 563.37 310.43 564.53 300.95C566.09 288.2 576.2 279.76 588.88 281.06C603.49 282.57 607.82 295.58 606.03 308.38C606.006 308.549 605.922 308.703 605.793 308.815C605.665 308.927 605.5 308.989 605.33 308.99L580.72 309C579.693 309 579.413 309.457 579.88 310.37ZM580.16 298.52L591.47 298.24C591.567 298.239 591.662 298.218 591.751 298.18C591.84 298.141 591.92 298.085 591.987 298.016C592.054 297.946 592.106 297.863 592.141 297.773C592.176 297.683 592.193 297.587 592.19 297.49L592.18 297.4C592.138 295.747 591.439 294.177 590.237 293.037C589.036 291.897 587.429 291.28 585.77 291.32H585.51C584.688 291.341 583.878 291.523 583.126 291.856C582.375 292.189 581.696 292.666 581.13 293.26C580.563 293.855 580.12 294.554 579.825 295.32C579.53 296.085 579.389 296.901 579.41 297.72V297.81C579.412 297.906 579.434 298 579.473 298.088C579.512 298.175 579.568 298.254 579.638 298.32C579.707 298.386 579.789 298.438 579.879 298.472C579.969 298.506 580.064 298.523 580.16 298.52Z" fill="#D9BD2E"/>
<path d="M627.35 287.98C627.543 288.906 627.877 288.963 628.35 288.15C631.39 282.956 635.55 280.566 640.83 280.98C641.225 281.01 641.595 281.186 641.867 281.475C642.139 281.763 642.294 282.143 642.3 282.54L642.51 295.22C642.511 295.303 642.494 295.386 642.46 295.462C642.426 295.538 642.377 295.606 642.315 295.661C642.254 295.716 642.181 295.757 642.102 295.781C642.024 295.805 641.941 295.811 641.86 295.8C636.37 295.02 629.58 296.34 629.54 303.28C629.5 309.94 629.48 317.006 629.48 324.48C629.48 324.607 629.429 324.729 629.339 324.819C629.249 324.909 629.127 324.96 629 324.96L614.02 325.11C613.76 325.11 613.63 324.98 613.63 324.72L613.48 282.49C613.48 282.414 613.495 282.339 613.524 282.269C613.554 282.199 613.596 282.136 613.65 282.083C613.704 282.03 613.768 281.988 613.839 281.96C613.909 281.932 613.984 281.918 614.06 281.92L625.79 282C625.971 282 626.15 282.039 626.315 282.112C626.48 282.186 626.629 282.293 626.751 282.428C626.873 282.562 626.966 282.721 627.025 282.893C627.083 283.065 627.105 283.248 627.09 283.43C626.957 285.016 627.043 286.533 627.35 287.98Z" fill="#D9BD2E"/>
<path d="M331.62 356.969C330.09 353.899 331.28 350.109 334.85 349.289C337.21 348.749 339.44 349.236 341.54 350.749C341.622 350.809 341.691 350.884 341.744 350.971C341.796 351.058 341.831 351.154 341.846 351.253C341.861 351.353 341.856 351.455 341.831 351.552C341.806 351.649 341.761 351.74 341.7 351.819C340.527 353.346 338.89 353.793 336.79 353.159C336.546 353.087 336.286 353.083 336.04 353.148C335.793 353.213 335.568 353.345 335.39 353.529C334.337 354.629 334.86 355.893 336.96 357.319C337.176 357.463 337.427 357.549 337.69 357.569L341.48 357.779C342.013 357.806 342.273 358.086 342.26 358.619L342.21 361.259C342.203 361.806 341.927 362.079 341.38 362.079L330.32 362.109C329.72 362.109 329.427 361.809 329.44 361.209L329.52 358.489C329.526 358.3 329.6 358.118 329.728 357.979C329.857 357.839 330.031 357.751 330.22 357.729L331.27 357.619C331.69 357.566 331.807 357.349 331.62 356.969Z" fill="#61615F"/>
<path d="M45.87 403.809C42.5567 407.869 37.42 409.406 30.46 408.419C27.72 408.026 25.7967 406.802 24.69 404.749C24.4633 404.329 24.1967 404.299 23.89 404.659C19.73 409.532 14.4133 410.516 7.94 407.609C4.08 405.876 1.64667 402.439 0.640001 397.299C-1.48 386.549 2.29 374.199 15.12 373.989C19.86 373.902 24.59 373.879 29.31 373.919C29.486 373.922 29.6538 373.993 29.7773 374.119C29.9008 374.244 29.97 374.413 29.97 374.589V397.179C29.9633 398.139 30.4233 398.742 31.35 398.989C32.2967 399.242 33.3133 399.379 34.4 399.399C40.09 399.519 40.45 395.909 40.47 391.089C40.5233 379.602 40.52 368.152 40.46 356.739C40.46 356.206 40.7267 355.939 41.26 355.939L48.79 355.899C49.3567 355.892 49.6267 356.172 49.6 356.739C49.56 357.659 49.54 358.542 49.54 359.389C49.5667 370.096 49.6067 381.429 49.66 393.389C49.68 398.639 53.79 400.619 58.36 398.929C59.8667 398.376 60.6233 397.039 60.63 394.919C60.64 390.509 60.88 385.779 62.76 381.809C68.14 370.489 85.34 371.129 89.35 383.519C92.24 392.439 90.89 406.239 79.99 408.889C73.5633 410.449 68.5567 408.952 64.97 404.399C64.6767 404.019 64.41 404.039 64.17 404.459C63.1833 406.199 61.8 407.356 60.02 407.929C54.1 409.822 49.63 408.459 46.61 403.839C46.3833 403.492 46.1367 403.482 45.87 403.809ZM75.7794 400.619C76.6159 400.615 77.443 400.366 78.2133 399.888C78.9837 399.41 79.6822 398.712 80.2691 397.833C80.856 396.955 81.3198 395.913 81.6339 394.767C81.948 393.621 82.1064 392.394 82.0999 391.156C82.0934 389.917 81.9222 388.692 81.5961 387.55C81.27 386.407 80.7954 385.37 80.1993 384.497C79.6032 383.625 78.8973 382.934 78.122 382.464C77.3467 381.994 76.5171 381.755 75.6806 381.759C74.8441 381.764 74.0171 382.012 73.2467 382.49C72.4764 382.968 71.7778 383.666 71.1909 384.545C70.6039 385.423 70.1402 386.465 69.8261 387.611C69.5119 388.757 69.3536 389.984 69.3601 391.222C69.3666 392.461 69.5378 393.686 69.8639 394.829C70.19 395.971 70.6646 397.008 71.2607 397.881C71.8568 398.753 72.5627 399.444 73.338 399.914C74.1133 400.384 74.9429 400.623 75.7794 400.619ZM13.5 382.409C8.64 383.309 8.4 391.339 9.15 395.129C10.62 402.499 21.13 400.899 20.89 393.909C20.7567 389.976 20.75 386.282 20.87 382.829C20.89 382.409 20.69 382.182 20.27 382.149C17.6833 381.962 15.4267 382.049 13.5 382.409Z" fill="#61615F"/>
<path d="M128.14 397.009L121.6 389.169C121.471 389.014 121.291 388.909 121.09 388.873C120.89 388.836 120.681 388.87 120.5 388.969L118.62 390.029C118.16 390.282 117.933 390.149 117.94 389.629L117.97 381.819C117.97 381.206 118.23 380.742 118.75 380.429C127.583 375.029 136.427 373.616 145.28 376.189C148.827 377.216 151.213 379.346 152.44 382.579C154.74 388.619 151.55 394.239 146.63 397.819C145.47 398.666 145.607 399.136 147.04 399.229C151.013 399.482 154.973 399.492 158.92 399.259C161.13 399.129 163.76 397.869 163.77 395.329C163.85 382.722 163.85 369.732 163.77 356.359C163.77 356.046 163.927 355.892 164.24 355.899L172.5 355.959C172.853 355.959 173.027 356.136 173.02 356.489C172.86 367.182 172.85 377.692 172.99 388.019C173.077 394.126 172.717 398.139 171.91 400.059C169.83 405.026 165.727 407.826 159.6 408.459C154.067 409.032 148.357 408.966 142.47 408.259C139.94 407.959 137.65 406.889 135.47 405.599C135.188 405.428 134.868 405.326 134.537 405.3C134.205 405.274 133.871 405.325 133.56 405.449C124.41 409.089 104.4 412.609 99.3199 400.379C98.5133 398.446 98.1266 395.646 98.1599 391.979C98.2799 379.726 98.3033 367.889 98.2299 356.469C98.2299 356.096 98.4166 355.912 98.7899 355.919L106.75 355.949C107.157 355.949 107.36 356.152 107.36 356.559C107.293 368.466 107.277 379.822 107.31 390.629C107.33 394.719 106.48 398.909 112.46 399.299C118.793 399.706 123.95 399.199 127.93 397.779C128.37 397.619 128.44 397.362 128.14 397.009ZM143.13 389.089C143.563 388.598 143.794 387.96 143.776 387.307C143.757 386.653 143.49 386.032 143.03 385.569C140.35 382.839 132.82 384.019 129.61 385.059C129.59 385.064 129.573 385.073 129.558 385.087C129.544 385.101 129.533 385.119 129.527 385.139C129.521 385.158 129.52 385.18 129.524 385.201C129.528 385.222 129.537 385.242 129.55 385.259L136.45 393.699C136.524 393.784 136.623 393.841 136.733 393.861C136.842 393.881 136.954 393.862 137.05 393.809C139.557 392.422 141.583 390.849 143.13 389.089Z" fill="#61615F"/>
<path d="M189.92 355.929H181.62C181.416 355.929 181.25 356.095 181.25 356.299V408.359C181.25 408.564 181.416 408.729 181.62 408.729H189.92C190.124 408.729 190.29 408.564 190.29 408.359V356.299C190.29 356.095 190.124 355.929 189.92 355.929Z" fill="#61615F"/>
<path d="M328.43 398.939C332.24 400.349 347.48 403.939 349.19 398.749C349.75 397.056 350.027 395.102 350.02 392.889C349.98 380.442 349.963 368.322 349.97 356.529C349.97 356.162 350.153 355.976 350.52 355.969L358.43 355.899C358.823 355.899 359.023 356.096 359.03 356.489C359.177 367.736 359.173 380.372 359.02 394.399C358.92 403.229 354.94 409.749 345.29 410.389C338.603 410.836 332.007 409.772 325.5 407.199C325.153 407.066 325.04 406.826 325.16 406.479L327.69 399.299C327.817 398.926 328.063 398.806 328.43 398.939Z" fill="#61615F"/>
<path d="M376.06 355.939H367.82C367.583 355.939 367.39 356.132 367.39 356.369V408.269C367.39 408.506 367.583 408.699 367.82 408.699H376.06C376.298 408.699 376.49 408.506 376.49 408.269V356.369C376.49 356.132 376.298 355.939 376.06 355.939Z" fill="#61615F"/>
<path d="M455.71 355.939H447.47C447.199 355.939 446.98 356.158 446.98 356.429V408.229C446.98 408.5 447.199 408.719 447.47 408.719H455.71C455.981 408.719 456.2 408.5 456.2 408.229V356.429C456.2 356.158 455.981 355.939 455.71 355.939Z" fill="#61615F"/>
<path d="M623.11 355.909H615.13C614.815 355.909 614.56 356.164 614.56 356.479V395.339C614.56 395.654 614.815 395.909 615.13 395.909H623.11C623.425 395.909 623.68 395.654 623.68 395.339V356.479C623.68 356.164 623.425 355.909 623.11 355.909Z" fill="#61615F"/>
<path d="M628.1 401.159C631.31 400.879 632.21 398.009 632.22 395.299C632.293 382.326 632.31 369.369 632.27 356.429C632.27 356.302 632.321 356.18 632.411 356.09C632.501 356 632.623 355.949 632.75 355.949L640.99 355.889C641.101 355.889 641.208 355.933 641.287 356.012C641.366 356.091 641.41 356.198 641.41 356.309C641.457 368.183 641.463 380.433 641.43 393.059C641.41 401.359 638.54 409.189 629.07 410.209C621.763 410.996 614.667 409.969 607.78 407.129C607.635 407.07 607.517 406.958 607.454 406.816C607.39 406.674 607.385 406.513 607.44 406.369L610 399.339C610.12 398.993 610.353 398.879 610.7 398.999C616.307 400.959 622.107 401.679 628.1 401.159Z" fill="#61615F"/>
<path d="M15.09 356.199H9.89002C9.40953 356.199 9.02002 356.589 9.02002 357.069V364.589C9.02002 365.07 9.40953 365.459 9.89002 365.459H15.09C15.5705 365.459 15.96 365.07 15.96 364.589V357.069C15.96 356.589 15.5705 356.199 15.09 356.199Z" fill="#61615F"/>
<path d="M25.1 356.259H19.3C18.9962 356.259 18.75 356.506 18.75 356.809V364.869C18.75 365.173 18.9962 365.419 19.3 365.419H25.1C25.4038 365.419 25.65 365.173 25.65 364.869V356.809C25.65 356.506 25.4038 356.259 25.1 356.259Z" fill="#61615F"/>
<path d="M510.158 356.274L504.338 356.264C504.034 356.264 503.788 356.509 503.787 356.813L503.773 364.853C503.773 365.157 504.018 365.404 504.322 365.404L510.142 365.414C510.446 365.415 510.693 365.169 510.693 364.865L510.707 356.825C510.708 356.522 510.462 356.275 510.158 356.274Z" fill="#61615F"/>
<path d="M519.772 356.299L514.192 356.26C513.838 356.257 513.55 356.542 513.547 356.895L513.493 364.735C513.49 365.089 513.775 365.377 514.128 365.38L519.708 365.419C520.061 365.421 520.35 365.137 520.352 364.783L520.407 356.943C520.41 356.59 520.125 356.301 519.772 356.299Z" fill="#61615F"/>
<path d="M538.23 356.229H532.51C532.195 356.229 531.94 356.484 531.94 356.799V364.859C531.94 365.174 532.195 365.429 532.51 365.429H538.23C538.545 365.429 538.8 365.174 538.8 364.859V356.799C538.8 356.484 538.545 356.229 538.23 356.229Z" fill="#61615F"/>
<path d="M547.744 356.2L542.384 356.218C541.931 356.22 541.565 356.588 541.567 357.041L541.594 364.701C541.595 365.154 541.964 365.52 542.416 365.518L547.776 365.5C548.229 365.498 548.595 365.13 548.594 364.677L548.567 357.017C548.565 356.564 548.197 356.198 547.744 356.2Z" fill="#61615F"/>
<path d="M340.91 364.669H332.71C332.461 364.669 332.26 364.87 332.26 365.119V395.439C332.26 395.687 332.461 395.889 332.71 395.889H340.91C341.159 395.889 341.36 395.687 341.36 395.439V365.119C341.36 364.87 341.159 364.669 340.91 364.669Z" fill="#61615F"/>
<path d="M501.55 398.759C495.07 392.369 494.92 382.139 502.07 376.199C511.01 368.769 525.81 373.429 527.17 385.709C527.743 390.883 526.177 395.259 522.47 398.839C522.426 398.88 522.395 398.933 522.382 398.992C522.368 399.05 522.372 399.111 522.394 399.167C522.416 399.223 522.453 399.271 522.503 399.306C522.552 399.34 522.61 399.359 522.67 399.359C525.377 399.473 528.13 399.449 530.93 399.289C535.02 399.059 535.69 395.399 535.67 391.999C535.637 385.526 535.653 379.599 535.72 374.219C535.72 374.013 535.827 373.909 536.04 373.909L544.46 373.919C544.653 373.919 544.75 374.016 544.75 374.209C544.703 381.449 544.73 388.013 544.83 393.899C544.89 397.439 546.673 399.259 550.18 399.359C554.12 399.466 557.887 399.466 561.48 399.359C561.612 399.354 561.736 399.298 561.828 399.203C561.919 399.108 561.97 398.981 561.97 398.849L561.94 380.989C561.94 380.603 562.133 380.413 562.52 380.419L570.48 380.549C570.632 380.552 570.777 380.614 570.884 380.723C570.99 380.831 571.05 380.977 571.05 381.129L571 398.909C571 399.256 571.173 399.426 571.52 399.419L577.7 399.369C578.06 399.369 578.24 399.189 578.24 398.829C578.293 392.583 577.973 386.266 577.28 379.879C577.24 379.513 577.4 379.286 577.76 379.199L585.07 377.479C585.43 377.393 585.663 377.526 585.77 377.879C585.97 378.573 586.113 379.276 586.2 379.989C586.947 385.843 587.24 391.873 587.08 398.079C587.047 399.233 587.607 399.733 588.76 399.579L591.61 399.199C592.183 399.122 592.713 398.853 593.113 398.435C593.513 398.017 593.759 397.475 593.81 396.899C594.517 388.806 593.667 381.719 591.26 375.639C591.047 375.093 591.2 374.686 591.72 374.419L598.01 371.179C598.69 370.833 599.17 371.016 599.45 371.729C601.723 377.556 602.983 384.106 603.23 391.379C603.343 394.639 603.033 397.453 602.3 399.819C600.12 406.849 594.85 408.789 588.11 408.779C574.057 408.773 561.563 408.763 550.63 408.749C546.837 408.749 543.987 407.233 542.08 404.199C541.747 403.673 541.37 403.633 540.95 404.079C538.39 406.806 535.287 408.306 531.64 408.579C526.987 408.939 522.357 408.923 517.75 408.529C516.057 408.389 514.467 407.903 512.98 407.069C512.735 406.933 512.461 406.857 512.181 406.846C511.901 406.836 511.623 406.892 511.37 407.009C508.79 408.216 505.783 408.813 502.35 408.799C489.977 408.759 477.457 408.739 464.79 408.739C464.704 408.739 464.622 408.706 464.56 408.646C464.499 408.586 464.463 408.505 464.46 408.419L464.38 399.729C464.379 399.693 464.385 399.657 464.398 399.623C464.412 399.589 464.432 399.558 464.458 399.532C464.485 399.506 464.516 399.485 464.551 399.471C464.585 399.457 464.622 399.449 464.66 399.449L479.04 399.409C479.44 399.409 479.653 399.209 479.68 398.809C479.973 393.823 479.793 389.889 479.14 387.009C477.73 380.809 469.48 382.119 464.79 382.219C464.557 382.226 464.44 382.113 464.44 381.879L464.47 374.359C464.47 374.099 464.6 373.963 464.86 373.949C467.707 373.856 470.51 373.889 473.27 374.049C488.14 374.929 489.01 386.899 488.65 398.669C488.637 399.183 488.887 399.439 489.4 399.439L501.28 399.429C501.907 399.429 501.997 399.206 501.55 398.759ZM512.47 396.639C516 393.999 519.55 388.979 517.71 384.449C516.15 380.629 511.07 379.699 508.1 382.219C503.04 386.499 507.35 393.559 511.55 396.639C511.857 396.866 512.163 396.866 512.47 396.639Z" fill="#61615F"/>
<path d="M259.09 382.179C253.74 382.289 251.62 383.749 251.58 389.379C251.54 395.746 251.537 402.056 251.57 408.309C251.571 408.368 251.561 408.426 251.54 408.481C251.518 408.535 251.486 408.585 251.445 408.627C251.404 408.669 251.355 408.702 251.301 408.725C251.247 408.747 251.189 408.759 251.13 408.759C244.663 408.772 237.537 408.789 229.75 408.809C221.69 408.829 216.407 405.729 213.9 399.509C211.88 394.479 212.66 386.879 212.56 380.919C212.56 380.766 212.633 380.689 212.78 380.689C216.827 380.542 219.58 380.606 221.04 380.879C221.087 380.892 221.11 380.922 221.11 380.969C220.99 384.956 220.997 388.839 221.13 392.619C221.283 397.039 223.557 399.296 227.95 399.389C232.877 399.482 237.603 399.479 242.13 399.379C242.237 399.376 242.339 399.332 242.414 399.255C242.488 399.179 242.53 399.076 242.53 398.969C242.55 394.059 241.99 388.879 243.25 384.309C246.61 372.129 258.54 373.809 268.5 373.929C268.628 373.932 268.75 373.983 268.84 374.073C268.93 374.163 268.98 374.283 268.98 374.409L268.99 399.389C268.99 399.876 268.743 400.116 268.25 400.109L260.44 399.979C260.272 399.976 260.112 399.908 259.994 399.788C259.876 399.668 259.81 399.507 259.81 399.339V382.879C259.81 382.785 259.791 382.693 259.755 382.606C259.719 382.52 259.665 382.442 259.598 382.377C259.531 382.312 259.451 382.26 259.364 382.226C259.277 382.193 259.184 382.176 259.09 382.179Z" fill="#61615F"/>
<path d="M301.42 399.459C306.22 399.459 311.02 399.819 311.03 393.439C311.037 386.979 311.033 380.716 311.02 374.649C311.02 374.162 311.263 373.919 311.75 373.919L319.33 373.909C319.452 373.908 319.572 373.931 319.685 373.977C319.797 374.024 319.899 374.093 319.984 374.18C320.069 374.267 320.135 374.37 320.179 374.483C320.223 374.597 320.244 374.718 320.24 374.839C320.113 378.866 320.11 383.056 320.23 387.409C320.383 392.849 320.033 396.789 319.18 399.229C316.947 405.589 311.73 408.769 303.53 408.769C294.357 408.776 285.543 408.776 277.09 408.769C276.965 408.769 276.846 408.72 276.758 408.631C276.669 408.543 276.62 408.424 276.62 408.299L276.66 399.809C276.66 399.708 276.701 399.612 276.774 399.54C276.847 399.469 276.947 399.429 277.05 399.429L291.43 399.449C291.571 399.449 291.707 399.394 291.808 399.295C291.909 399.195 291.967 399.061 291.97 398.919C292.05 395.552 291.983 392.292 291.77 389.139C291.53 385.709 289.98 382.819 286.41 382.439C283.52 382.129 280.69 382.039 277.76 382.279C276.98 382.346 276.597 381.986 276.61 381.199L276.7 375.029C276.713 374.209 277.133 373.816 277.96 373.849C282.16 374.009 286.75 373.609 290.66 374.929C301.04 378.439 301.29 389.429 300.83 398.839C300.81 399.252 301.007 399.459 301.42 399.459Z" fill="#61615F"/>
<path d="M409.78 394.399C408.18 382.649 415 371.309 428.35 374.299C438.18 376.509 440.62 387.869 439.09 396.619C437.35 406.539 428.39 410.819 419.23 407.909C416.043 406.896 412.733 405.619 409.3 404.079C409.079 403.979 408.84 403.928 408.597 403.929C408.355 403.93 408.116 403.983 407.896 404.084C407.676 404.186 407.48 404.333 407.322 404.517C407.164 404.701 407.047 404.916 406.98 405.149C406.76 405.916 406.683 406.736 406.75 407.609C407.243 414.289 407.773 420.209 408.34 425.369C408.35 425.453 408.342 425.537 408.317 425.618C408.292 425.698 408.25 425.772 408.194 425.836C408.139 425.899 408.07 425.95 407.994 425.985C407.917 426.02 407.834 426.038 407.75 426.039L400.5 426.129C400.087 426.136 399.86 425.932 399.82 425.519C399.107 418.906 398.627 412.696 398.38 406.889C398.09 399.949 400.97 393.599 409.25 394.919C409.32 394.931 409.392 394.925 409.46 394.904C409.528 394.882 409.59 394.844 409.642 394.794C409.693 394.743 409.732 394.682 409.756 394.613C409.78 394.545 409.788 394.471 409.78 394.399ZM420.95 383.109C417.38 386.169 418.05 393.689 419.34 397.939C419.46 398.346 419.717 398.632 420.11 398.799C424.13 400.459 429.15 400.059 430.34 394.989C431.14 391.589 431.07 385.499 427.9 383.109C425.94 381.629 422.91 381.449 420.95 383.109Z" fill="#61615F"/>
<path d="M614.75 420.299C614.54 419.229 613.95 418.229 614.08 417.129C614.79 411.529 621.32 411.119 624.85 414.089C624.984 414.2 625.07 414.359 625.091 414.532C625.111 414.705 625.065 414.879 624.96 415.019C623.58 416.829 622.05 416.829 620.06 416.449C619.785 416.398 619.501 416.42 619.236 416.513C618.972 416.606 618.737 416.767 618.556 416.979C618.374 417.191 618.252 417.447 618.202 417.721C618.152 417.995 618.175 418.277 618.27 418.539C619.09 420.869 622.55 421.099 624.65 420.929C625.19 420.889 625.463 421.139 625.47 421.679L625.51 424.669C625.51 425.036 625.33 425.219 624.97 425.219L613.34 425.349C612.914 425.356 612.7 425.149 612.7 424.729L612.71 421.419C612.717 421.079 612.887 420.909 613.22 420.909L614.23 420.919C614.65 420.919 614.824 420.712 614.75 420.299Z" fill="#61615F"/>
<path d="M231.404 413.19L225.944 413.209C225.535 413.21 225.205 413.543 225.206 413.951L225.233 421.691C225.235 422.1 225.567 422.43 225.976 422.429L231.436 422.41C231.845 422.408 232.175 422.076 232.173 421.667L232.146 413.927C232.145 413.519 231.813 413.188 231.404 413.19Z" fill="#61615F"/>
<path d="M241.148 413.254L235.608 413.244C235.255 413.244 234.968 413.53 234.967 413.883L234.953 421.763C234.953 422.117 235.239 422.404 235.592 422.404L241.132 422.414C241.485 422.415 241.773 422.129 241.773 421.775L241.787 413.895C241.788 413.542 241.501 413.255 241.148 413.254Z" fill="#61615F"/>
<path d="M309.522 413.204L303.902 413.214C303.549 413.215 303.262 413.502 303.263 413.855L303.277 421.755C303.277 422.109 303.565 422.395 303.918 422.394L309.538 422.384C309.891 422.384 310.177 422.097 310.177 421.743L310.163 413.843C310.162 413.49 309.875 413.204 309.522 413.204Z" fill="#61615F"/>
<path d="M319.22 413.269H313.6C313.269 413.269 313 413.538 313 413.869V421.809C313 422.14 313.269 422.409 313.6 422.409H319.22C319.551 422.409 319.82 422.14 319.82 421.809V413.869C319.82 413.538 319.551 413.269 319.22 413.269Z" fill="#61615F"/>
<path d="M492.79 435.169C494.839 435.169 496.5 433.508 496.5 431.459C496.5 429.41 494.839 427.749 492.79 427.749C490.741 427.749 489.08 429.41 489.08 431.459C489.08 433.508 490.741 435.169 492.79 435.169Z" fill="#61615F"/>
<path d="M361.6 451.249L361.63 464.939C361.63 465.393 361.403 465.623 360.95 465.629L355.7 465.659C355.153 465.659 354.88 465.386 354.88 464.839L354.84 429.859C354.84 429.486 355.023 429.266 355.39 429.199C362.82 427.879 378.23 426.509 379.53 437.289C380.083 441.903 378.15 445.353 373.73 447.639C373.15 447.939 373.137 448.263 373.69 448.609C375.863 449.963 377.277 452.056 377.93 454.889C378.75 458.449 379.84 462.019 380.89 465.409C380.9 465.436 380.903 465.465 380.9 465.493C380.896 465.521 380.885 465.548 380.868 465.571C380.851 465.594 380.829 465.612 380.803 465.624C380.777 465.636 380.748 465.641 380.72 465.639L374.17 465.629C374.093 465.63 374.017 465.604 373.956 465.557C373.894 465.51 373.85 465.444 373.83 465.369C372.837 461.869 371.887 458.383 370.98 454.909C369.89 450.759 366.02 450.239 362.41 450.399C361.87 450.426 361.6 450.709 361.6 451.249ZM361.58 434.469L361.64 444.709C361.643 444.933 361.733 445.147 361.893 445.304C362.052 445.461 362.266 445.549 362.49 445.549L365.97 445.539C366.867 445.534 367.755 445.39 368.582 445.115C369.41 444.839 370.161 444.438 370.792 443.933C371.424 443.429 371.923 442.832 372.263 442.176C372.602 441.52 372.775 440.817 372.77 440.109V438.949C372.761 437.52 372.034 436.154 370.747 435.151C369.461 434.147 367.721 433.589 365.91 433.599L362.43 433.609C362.318 433.609 362.206 433.632 362.102 433.675C361.999 433.718 361.905 433.782 361.826 433.862C361.746 433.942 361.684 434.037 361.642 434.141C361.6 434.245 361.579 434.357 361.58 434.469Z" fill="#61615F"/>
<path d="M7.85 444.389L20.27 444.399C20.4159 444.399 20.5558 444.457 20.6589 444.56C20.7621 444.663 20.82 444.803 20.82 444.949L20.8 449.349C20.8 449.495 20.7421 449.635 20.6389 449.738C20.5358 449.841 20.3959 449.899 20.25 449.899L7.8 449.879C7.65413 449.879 7.51424 449.937 7.41109 450.04C7.30795 450.143 7.25 450.283 7.25 450.429L7.28 464.999C7.28009 465.141 7.2249 465.278 7.12605 465.381C7.02719 465.484 6.89237 465.544 6.75 465.549L1.09 465.709C1.0161 465.712 0.94243 465.699 0.873375 465.673C0.80432 465.647 0.741305 465.606 0.688095 465.555C0.634886 465.504 0.59258 465.442 0.563698 465.374C0.534815 465.306 0.519948 465.233 0.519997 465.159L0.5 429.199C0.5 429.053 0.55795 428.913 0.661095 428.81C0.76424 428.707 0.904134 428.649 1.05 428.649L21.33 428.659C21.4031 428.659 21.4754 428.673 21.5428 428.702C21.6102 428.73 21.6713 428.771 21.7225 428.824C21.7737 428.876 21.814 428.937 21.841 429.005C21.8681 429.073 21.8813 429.146 21.88 429.219L21.83 433.689C21.8274 433.833 21.7683 433.97 21.6654 434.071C21.5626 434.172 21.4242 434.229 21.28 434.229L7.81 434.179C7.66413 434.179 7.52423 434.237 7.42109 434.34C7.31794 434.443 7.26 434.583 7.26 434.729L7.3 443.839C7.3 443.985 7.35795 444.125 7.46109 444.228C7.56424 444.331 7.70413 444.389 7.85 444.389Z" fill="#61615F"/>
<path d="M95.3599 437.129L94.0299 464.879C94.0099 465.359 93.7566 465.602 93.2699 465.609L88.2599 465.689C87.8133 465.696 87.6033 465.476 87.6299 465.029L89.9399 429.409C89.9733 428.909 90.2399 428.659 90.7399 428.659L98.2299 428.649C98.6899 428.649 98.9966 428.869 99.1499 429.309C102.063 437.776 104.687 446.466 107.02 455.379C107.187 456.019 107.36 456.019 107.54 455.379C109.8 447.026 112.543 438.356 115.77 429.369C115.943 428.883 116.29 428.639 116.81 428.639L124.19 428.649C124.374 428.649 124.551 428.719 124.685 428.846C124.819 428.972 124.9 429.145 124.91 429.329L126.92 465.179C126.94 465.499 126.787 465.659 126.46 465.659L120.75 465.599C120.443 465.599 120.283 465.446 120.27 465.139L119.11 436.629C119.108 436.595 119.096 436.559 119.076 436.527C119.056 436.496 119.03 436.47 119.001 436.456C118.972 436.442 118.944 436.439 118.92 436.449C118.896 436.459 118.878 436.48 118.87 436.509L109.56 464.509C109.413 464.936 109.113 465.149 108.66 465.149L104.99 465.159C104.76 465.159 104.536 465.086 104.349 464.951C104.163 464.817 104.023 464.627 103.95 464.409C100.717 454.856 98.0066 445.746 95.8199 437.079C95.5599 436.072 95.4066 436.089 95.3599 437.129Z" fill="#61615F"/>
<path d="M504.55 438.349L504.5 434.669C504.497 434.452 504.568 434.24 504.7 434.066C504.832 433.892 505.018 433.767 505.23 433.709L510.28 432.379C510.98 432.199 511.31 432.469 511.27 433.189L511 438.239C510.996 438.321 511.008 438.403 511.037 438.48C511.065 438.556 511.108 438.627 511.164 438.686C511.22 438.746 511.288 438.794 511.363 438.827C511.437 438.86 511.518 438.878 511.6 438.879L516.79 438.929C517.29 438.929 517.54 439.179 517.54 439.679L517.56 443.109C517.567 443.636 517.307 443.906 516.78 443.919L511.7 444.049C511.267 444.056 511.053 444.279 511.06 444.719C511.127 449.053 511.203 453.296 511.29 457.449C511.36 460.829 514.4 460.529 516.72 460.749C516.901 460.769 517.068 460.855 517.188 460.99C517.309 461.125 517.373 461.3 517.37 461.479L517.32 464.949C517.313 465.296 517.143 465.516 516.81 465.609C515.57 465.943 514.267 466.123 512.9 466.149C505.29 466.309 504.35 460.659 504.46 454.609C504.527 450.843 504.54 447.439 504.5 444.399C504.493 444.039 504.31 443.873 503.95 443.899L501.48 444.089C500.96 444.129 500.703 443.889 500.71 443.369L500.76 439.659C500.767 439.179 501.007 438.936 501.48 438.929L504.04 438.879C504.38 438.873 504.55 438.696 504.55 438.349Z" fill="#61615F"/>
<path d="M636.48 438.899L641.9 438.939C642.313 438.946 642.517 439.153 642.51 439.559L642.47 443.179C642.47 443.686 642.217 443.936 641.71 443.929L636.51 443.889C636.143 443.889 635.96 444.069 635.96 444.429C635.953 448.776 636.003 453.033 636.11 457.199C636.2 460.869 638.99 460.509 641.58 460.649C641.76 460.66 641.93 460.739 642.053 460.871C642.176 461.004 642.243 461.179 642.24 461.359L642.22 464.859C642.213 465.313 641.993 465.589 641.56 465.689C635.69 467.019 629.95 465.779 629.62 458.749C629.407 454.276 629.373 449.573 629.52 444.639C629.523 444.54 629.505 444.441 629.469 444.349C629.433 444.257 629.378 444.173 629.309 444.103C629.24 444.032 629.157 443.977 629.066 443.941C628.975 443.904 628.878 443.886 628.78 443.889L626.32 443.939C625.82 443.946 625.577 443.703 625.59 443.209L625.69 439.679C625.71 439.179 625.967 438.926 626.46 438.919L628.89 438.889C629.31 438.883 629.517 438.669 629.51 438.249L629.47 434.829C629.456 434.229 629.74 433.853 630.32 433.699L635.18 432.379C635.78 432.213 636.073 432.443 636.06 433.069L635.95 438.369C635.943 438.723 636.12 438.899 636.48 438.899Z" fill="#61615F"/>
<path d="M36.0403 466.142C32.4734 465.538 29.3002 463.496 27.2187 460.464C25.1372 457.432 24.3179 453.659 24.9411 449.974C25.2497 448.15 25.9031 446.402 26.864 444.831C27.825 443.26 29.0747 441.896 30.5417 440.817C32.0088 439.738 33.6645 438.966 35.4143 438.543C37.1641 438.121 38.9737 438.058 40.7399 438.356C44.3068 438.96 47.48 441.002 49.5615 444.034C51.643 447.066 52.4623 450.839 51.8391 454.524C51.5305 456.348 50.8771 458.096 49.9161 459.667C48.9552 461.238 47.7055 462.602 46.2384 463.681C44.7714 464.76 43.1157 465.533 41.3659 465.955C39.6161 466.377 37.8064 466.441 36.0403 466.142ZM38.3901 461.279C40.1458 461.279 41.8296 460.325 43.0711 458.625C44.3126 456.926 45.0101 454.622 45.0101 452.219C45.0101 449.816 44.3126 447.512 43.0711 445.813C41.8296 444.114 40.1458 443.159 38.3901 443.159C36.6344 443.159 34.9505 444.114 33.709 445.813C32.4676 447.512 31.7701 449.816 31.7701 452.219C31.7701 454.622 32.4676 456.926 33.709 458.625C34.9505 460.325 36.6344 461.279 38.3901 461.279Z" fill="#61615F"/>
<path d="M63.6399 443.059C65.9599 440.029 67.7099 437.939 72.1199 438.479C72.3332 438.506 72.4432 438.629 72.4499 438.849L72.5099 444.399C72.51 444.435 72.5027 444.471 72.4884 444.503C72.4741 444.536 72.4531 444.566 72.4268 444.59C72.4005 444.615 72.3694 444.634 72.3355 444.645C72.3016 444.657 72.2657 444.662 72.2299 444.659C66.4299 444.159 64.0999 447.469 64.1799 452.719C64.2332 456.859 64.2632 460.909 64.2699 464.869C64.2699 465.056 64.1965 465.235 64.0655 465.368C63.9345 465.501 63.7565 465.577 63.5699 465.579L58.0799 465.649C57.6999 465.656 57.5099 465.469 57.5099 465.089L57.3799 439.939C57.3799 439.232 57.7332 438.882 58.4399 438.889L62.0299 438.909C62.8632 438.916 63.2532 439.336 63.1999 440.169L63.0299 442.829C62.9832 443.582 63.1865 443.659 63.6399 443.059Z" fill="#61615F"/>
<path d="M147.48 446.189C147.387 446.016 147.29 445.846 147.19 445.679C146.751 444.973 146.149 444.381 145.435 443.952C144.72 443.523 143.913 443.268 143.08 443.209C140.613 443.036 138.133 443.559 135.64 444.779C135.561 444.819 135.473 444.84 135.385 444.841C135.296 444.843 135.207 444.824 135.126 444.787C135.045 444.749 134.973 444.694 134.914 444.626C134.856 444.557 134.814 444.476 134.79 444.389L133.95 441.139C133.843 440.726 133.987 440.433 134.38 440.259C140.09 437.669 150.01 436.779 153.1 443.449C154.147 445.723 154.62 448.736 154.52 452.489C154.387 457.089 154.457 461.233 154.73 464.919C154.77 465.413 154.543 465.659 154.05 465.659L149.43 465.629C148.89 465.629 148.62 465.359 148.62 464.819V463.929C148.62 462.916 148.237 462.743 147.47 463.409C144.69 465.816 141.547 466.656 138.04 465.929C132.95 464.869 130.7 459.589 132.59 454.879C134.62 449.799 141.18 448.199 146.26 448.209C147.773 448.209 148.18 447.536 147.48 446.189ZM138.63 457.519C138.36 463.399 147.35 461.959 147.78 456.679C147.88 455.473 147.863 454.243 147.73 452.989C147.703 452.703 147.55 452.559 147.27 452.559C144 452.549 138.83 453.309 138.63 457.519Z" fill="#61615F"/>
<path d="M167.25 441.899C167.251 441.989 167.279 442.076 167.331 442.15C167.382 442.224 167.454 442.281 167.538 442.313C167.622 442.345 167.714 442.352 167.802 442.331C167.889 442.311 167.969 442.265 168.03 442.199C170.817 439.126 174.1 437.899 177.88 438.519C184.83 439.659 185.87 446.489 185.75 452.469C185.663 456.769 185.667 460.912 185.76 464.899C185.763 464.99 185.747 465.081 185.714 465.167C185.681 465.252 185.632 465.33 185.569 465.396C185.505 465.462 185.43 465.515 185.346 465.552C185.262 465.588 185.171 465.608 185.08 465.609L179.7 465.679C179.592 465.68 179.485 465.66 179.385 465.619C179.284 465.578 179.194 465.518 179.117 465.442C179.041 465.365 178.98 465.274 178.94 465.174C178.899 465.074 178.879 464.967 178.88 464.859C178.907 459.432 178.88 454.232 178.8 449.259C178.69 441.809 168.55 442.449 168.37 449.619C168.217 455.192 168.22 460.202 168.38 464.649C168.4 465.249 168.11 465.559 167.51 465.579L162.47 465.739C162.351 465.743 162.232 465.723 162.12 465.681C162.009 465.638 161.907 465.574 161.821 465.492C161.735 465.41 161.667 465.312 161.62 465.203C161.574 465.094 161.55 464.977 161.55 464.859L161.47 439.539C161.47 439.119 161.683 438.909 162.11 438.909L166.43 438.949C166.542 438.95 166.652 438.974 166.755 439.018C166.857 439.063 166.95 439.127 167.028 439.208C167.106 439.289 167.168 439.384 167.209 439.489C167.251 439.594 167.271 439.706 167.27 439.819L167.25 441.899Z" fill="#61615F"/>
<path d="M199.6 463.449V475.839C199.6 476.206 199.417 476.393 199.05 476.399L193.56 476.439C193.053 476.446 192.8 476.196 192.8 475.689L192.74 439.649C192.74 439.143 192.99 438.893 193.49 438.899L197.87 438.949C198.397 438.956 198.67 439.226 198.69 439.759L198.78 442.089C198.807 442.763 199.043 442.846 199.49 442.339C203.8 437.369 211.65 436.739 216 442.069C223.28 450.979 218.4 468.019 205.06 465.979C203.24 465.706 201.64 464.779 200.26 463.199C199.82 462.706 199.6 462.789 199.6 463.449ZM212.284 449.89C212.297 449.123 212.159 448.361 211.878 447.647C211.597 446.934 211.178 446.282 210.646 445.731C210.113 445.179 209.477 444.738 208.773 444.432C208.07 444.126 207.313 443.962 206.547 443.948L205.647 443.933C204.88 443.919 204.118 444.057 203.404 444.338C202.691 444.619 202.04 445.038 201.488 445.571C200.936 446.104 200.495 446.74 200.189 447.443C199.883 448.146 199.719 448.903 199.706 449.67L199.616 454.789C199.603 455.556 199.741 456.318 200.022 457.031C200.303 457.745 200.722 458.396 201.254 458.948C201.787 459.5 202.423 459.941 203.127 460.247C203.83 460.553 204.587 460.717 205.353 460.73L206.253 460.746C207.02 460.759 207.782 460.622 208.496 460.34C209.209 460.059 209.86 459.641 210.412 459.108C210.964 458.575 211.405 457.939 211.711 457.236C212.017 456.532 212.181 455.776 212.194 455.009L212.284 449.89Z" fill="#61615F"/>
<path d="M234.052 466.09C232.292 465.754 230.618 465.064 229.125 464.059C227.632 463.054 226.349 461.753 225.35 460.232C224.351 458.71 223.655 456.997 223.302 455.191C222.948 453.384 222.945 451.52 223.291 449.703C223.991 446.035 226.074 442.787 229.081 440.672C232.089 438.558 235.775 437.751 239.328 438.429C241.088 438.764 242.762 439.454 244.255 440.459C245.748 441.465 247.03 442.765 248.03 444.287C249.029 445.808 249.725 447.521 250.078 449.328C250.431 451.134 250.435 452.999 250.088 454.815C249.389 458.483 247.306 461.732 244.298 463.846C241.291 465.961 237.605 466.768 234.052 466.09ZM236.747 461.249C238.506 461.24 240.187 460.278 241.421 458.574C242.656 456.87 243.342 454.565 243.33 452.164C243.324 450.976 243.146 449.8 242.807 448.704C242.468 447.608 241.974 446.613 241.354 445.775C240.734 444.938 240 444.275 239.193 443.825C238.386 443.374 237.523 443.145 236.652 443.149C234.894 443.158 233.213 444.121 231.978 445.824C230.744 447.528 230.057 449.834 230.07 452.234C230.076 453.422 230.254 454.598 230.593 455.694C230.932 456.791 231.425 457.786 232.045 458.623C232.665 459.46 233.4 460.123 234.207 460.573C235.013 461.024 235.877 461.254 236.747 461.249Z" fill="#61615F"/>
<path d="M300.43 454.699C301.02 462.709 310.86 461.139 315.91 460.089C316.07 460.056 316.163 460.119 316.19 460.279L316.82 464.129C316.839 464.253 316.814 464.379 316.75 464.485C316.686 464.591 316.587 464.671 316.47 464.709C306.1 468.139 293.68 465.789 293.93 452.179C294.04 446.339 297.07 440.769 302.8 439.009C309.2 437.039 315.71 439.519 317.63 446.309C318.29 448.662 318.517 451.086 318.31 453.579C318.297 453.735 318.227 453.88 318.112 453.986C317.997 454.091 317.846 454.15 317.69 454.149L300.94 454.159C300.87 454.159 300.8 454.173 300.735 454.201C300.67 454.229 300.612 454.269 300.564 454.32C300.517 454.37 300.48 454.43 300.457 454.496C300.434 454.561 300.424 454.63 300.43 454.699ZM301.04 449.419L311.72 449.379C311.813 449.379 311.902 449.342 311.967 449.277C312.033 449.211 312.07 449.122 312.07 449.029V448.789C312.065 447.291 311.469 445.856 310.413 444.8C309.357 443.744 307.928 443.154 306.44 443.159H306.28C305.543 443.162 304.814 443.31 304.135 443.597C303.455 443.883 302.838 444.302 302.319 444.828C301.8 445.355 301.389 445.979 301.109 446.665C300.83 447.352 300.687 448.087 300.69 448.829V449.069C300.69 449.162 300.727 449.251 300.793 449.317C300.858 449.382 300.947 449.419 301.04 449.419Z" fill="#61615F"/>
<path d="M330.46 442.699C332.12 439.586 334.727 438.146 338.28 438.379C338.593 438.406 338.75 438.576 338.75 438.889L338.77 444.159C338.777 444.566 338.573 444.759 338.16 444.739C333.193 444.519 330.687 447.043 330.64 452.309C330.6 456.509 330.583 460.753 330.59 465.039C330.59 465.191 330.53 465.338 330.424 465.446C330.317 465.555 330.172 465.617 330.02 465.619L324.29 465.689C323.95 465.696 323.777 465.526 323.77 465.179L323.73 439.999C323.73 439.226 324.117 438.846 324.89 438.859L328.36 438.919C329.18 438.939 329.567 439.359 329.52 440.179C329.473 441.026 329.557 441.839 329.77 442.619C329.93 443.226 330.16 443.253 330.46 442.699Z" fill="#61615F"/>
<path d="M391.54 454.139C391.414 454.139 391.29 454.168 391.177 454.221C391.064 454.275 390.964 454.354 390.886 454.451C390.807 454.547 390.751 454.66 390.723 454.781C390.694 454.902 390.693 455.028 390.72 455.149C392.32 462.569 400.59 461.299 405.98 460.109C406.26 460.042 406.43 460.152 406.49 460.439L407.22 463.919C407.3 464.332 407.14 464.599 406.74 464.719C398.42 467.299 387.67 466.989 384.97 457.249C382.5 448.369 387.06 438.579 397.22 438.379C405.97 438.199 409.62 446.289 408.6 453.809C408.59 453.903 408.545 453.99 408.472 454.052C408.4 454.115 408.307 454.15 408.21 454.149L391.54 454.139ZM391.42 449.599L402.06 449.339C402.118 449.338 402.175 449.325 402.228 449.302C402.28 449.278 402.328 449.245 402.368 449.203C402.408 449.161 402.439 449.112 402.46 449.058C402.481 449.004 402.491 448.947 402.49 448.889L402.48 448.749C402.442 447.211 401.812 445.751 400.728 444.69C399.644 443.628 398.195 443.052 396.7 443.089H396.46C394.965 443.127 393.547 443.774 392.517 444.888C391.488 446.002 390.931 447.492 390.97 449.029V449.169C390.971 449.227 390.984 449.284 391.007 449.337C391.03 449.389 391.064 449.437 391.106 449.477C391.148 449.517 391.197 449.548 391.251 449.569C391.305 449.59 391.362 449.6 391.42 449.599Z" fill="#61615F"/>
<path d="M420.25 456.309C422.33 461.129 427.84 461.539 432.23 459.979C432.643 459.833 432.896 459.976 432.99 460.409L433.74 464.169C433.84 464.649 433.656 464.956 433.19 465.089C426.08 467.179 417.68 466.459 414.09 459.359C412.916 457.053 412.41 454.653 412.57 452.159C413.3 440.529 422.6 436.699 432.94 439.029C433.693 439.196 433.97 439.653 433.77 440.399L432.83 443.869C432.676 444.443 432.326 444.623 431.78 444.409C423.43 441.129 416.83 448.389 420.25 456.309Z" fill="#61615F"/>
<path d="M445.42 442.759C446.9 439.686 449.413 438.196 452.96 438.289C453.188 438.297 453.404 438.392 453.563 438.554C453.722 438.717 453.81 438.934 453.81 439.159L453.82 443.869C453.827 444.469 453.53 444.756 452.93 444.729C447.897 444.536 445.413 447.159 445.48 452.599C445.533 457.073 445.54 461.236 445.5 465.089C445.498 465.229 445.441 465.362 445.342 465.461C445.243 465.56 445.11 465.617 444.97 465.619L439.56 465.709C439.053 465.716 438.797 465.463 438.79 464.949L438.64 439.569C438.64 439.109 438.867 438.883 439.32 438.889L443.7 438.919C444.32 438.919 444.593 439.229 444.52 439.849C444.393 440.869 444.487 441.829 444.8 442.729C444.98 443.236 445.187 443.246 445.42 442.759Z" fill="#61615F"/>
<path d="M544.75 442.699C550.72 435.349 560.88 437.419 561.66 447.589C562.02 452.289 562.08 458.123 561.84 465.089C561.827 465.456 561.637 465.639 561.27 465.639L555.99 465.629C555.91 465.629 555.831 465.613 555.758 465.582C555.684 465.551 555.618 465.505 555.562 465.447C555.506 465.39 555.462 465.321 555.433 465.246C555.403 465.171 555.389 465.09 555.39 465.009C555.476 458.676 555.39 453.296 555.13 448.869C554.72 441.619 545.59 442.709 545.56 449.759C545.533 454.799 545.516 459.849 545.51 464.909C545.51 465.088 545.44 465.259 545.314 465.387C545.189 465.514 545.018 465.587 544.84 465.589L539.72 465.639C539.622 465.641 539.524 465.622 539.434 465.586C539.343 465.549 539.26 465.495 539.19 465.426C539.12 465.357 539.065 465.275 539.027 465.185C538.989 465.094 538.97 464.997 538.97 464.899C538.97 459.946 538.95 454.863 538.91 449.649C538.85 441.549 529.49 442.629 529.32 449.179C529.2 453.666 529.176 458.896 529.25 464.869C529.251 464.969 529.232 465.067 529.195 465.159C529.157 465.252 529.101 465.335 529.031 465.406C528.96 465.477 528.876 465.533 528.783 465.571C528.69 465.61 528.59 465.629 528.49 465.629L523.32 465.609C522.88 465.609 522.66 465.393 522.66 464.959L522.59 439.849C522.59 439.209 522.91 438.896 523.55 438.909L527.49 438.979C528.156 438.993 528.413 439.323 528.26 439.969C528.113 440.589 528.09 441.209 528.19 441.829C528.276 442.403 528.536 442.493 528.97 442.099C530.25 440.939 531.27 439.779 532.97 439.159C537.823 437.393 541.47 438.553 543.91 442.639C544.163 443.059 544.443 443.079 544.75 442.699Z" fill="#61615F"/>
<path d="M573.86 454.939C575.01 461.979 583.03 461.679 588.52 460.119C588.633 460.086 588.751 460.076 588.868 460.09C588.985 460.104 589.098 460.142 589.2 460.2C589.303 460.259 589.393 460.338 589.465 460.432C589.537 460.526 589.59 460.634 589.62 460.749L590.29 463.399C590.477 464.126 590.213 464.599 589.5 464.819C581.27 467.359 569.7 466.839 567.74 456.099C563.85 434.739 593.82 431.139 591.74 453.639C591.713 453.979 591.53 454.149 591.19 454.149L574.55 454.139C574.449 454.139 574.349 454.161 574.257 454.203C574.165 454.245 574.084 454.307 574.018 454.383C573.953 454.459 573.905 454.548 573.877 454.644C573.85 454.74 573.844 454.841 573.86 454.939ZM574.42 449.459L585.22 449.339C585.3 449.339 585.376 449.307 585.432 449.251C585.488 449.195 585.52 449.118 585.52 449.039V448.739C585.512 447.996 585.359 447.261 585.068 446.578C584.778 445.894 584.357 445.274 583.829 444.754C583.3 444.234 582.675 443.824 581.989 443.547C581.303 443.27 580.569 443.131 579.83 443.139H579.69C578.951 443.147 578.22 443.301 577.54 443.593C576.86 443.884 576.244 444.308 575.726 444.839C575.209 445.37 574.801 445.998 574.525 446.688C574.25 447.378 574.112 448.116 574.12 448.859V449.159C574.12 449.238 574.152 449.315 574.208 449.371C574.264 449.427 574.34 449.459 574.42 449.459Z" fill="#61615F"/>
<path d="M603 441.689C603.007 442.542 603.3 442.656 603.88 442.029C609.88 435.599 619.68 437.689 621.18 446.899C621.653 449.852 621.72 455.952 621.38 465.199C621.375 465.299 621.332 465.393 621.262 465.462C621.191 465.531 621.097 465.569 621 465.569L615.24 465.689C615.165 465.69 615.09 465.677 615.02 465.648C614.95 465.62 614.887 465.578 614.834 465.525C614.781 465.472 614.739 465.409 614.711 465.339C614.682 465.269 614.669 465.194 614.67 465.119C614.783 459.219 614.743 453.912 614.55 449.199C614.25 441.639 604.26 442.639 604.1 449.499C603.987 454.292 603.973 459.409 604.06 464.849C604.067 465.369 603.807 465.629 603.28 465.629L598.04 465.639C597.852 465.639 597.671 465.564 597.538 465.431C597.405 465.298 597.33 465.117 597.33 464.929L597.17 439.559C597.17 439.119 597.39 438.899 597.83 438.899L602.24 438.889C602.434 438.889 602.621 438.967 602.76 439.105C602.898 439.244 602.977 439.432 602.98 439.629L603 441.689Z" fill="#61615F"/>
<path d="M272.54 448.059C272.38 447.333 272.193 447.326 271.98 448.039L266.99 464.759C266.915 465.008 266.761 465.227 266.552 465.381C266.344 465.536 266.09 465.62 265.83 465.619L260.8 465.649C260.664 465.649 260.531 465.605 260.421 465.524C260.312 465.443 260.231 465.33 260.19 465.199L252.5 439.179C252.493 439.151 252.492 439.121 252.497 439.092C252.502 439.063 252.514 439.036 252.531 439.012C252.549 438.988 252.571 438.968 252.597 438.954C252.622 438.94 252.651 438.931 252.68 438.929L259.21 438.879C259.35 438.879 259.433 438.949 259.46 439.089L263.76 458.489C263.867 458.963 263.983 458.966 264.11 458.499L269.22 439.649C269.36 439.136 269.697 438.879 270.23 438.879L274.46 438.899C274.827 438.899 275.067 439.076 275.18 439.429C277.113 445.509 278.76 451.673 280.12 457.919C280.393 459.153 280.653 459.149 280.9 457.909C282.127 451.649 283.6 445.399 285.32 439.159C285.36 439.026 285.45 438.959 285.59 438.959L291.74 438.899C291.773 438.9 291.805 438.907 291.834 438.922C291.863 438.937 291.888 438.958 291.908 438.984C291.927 439.011 291.94 439.041 291.946 439.073C291.951 439.105 291.949 439.138 291.94 439.169L283.82 464.859C283.66 465.366 283.317 465.619 282.79 465.619L278.18 465.669C277.687 465.669 277.36 465.436 277.2 464.969C275.38 459.476 273.827 453.839 272.54 448.059Z" fill="#61615F"/>
<path d="M475.55 462.319C469.72 469.389 458.75 466.609 458.34 456.829C458.107 451.209 458.027 445.463 458.1 439.589C458.107 439.136 458.337 438.909 458.79 438.909L464.25 438.889C464.743 438.889 464.983 439.139 464.97 439.639C464.73 446.146 464.793 451.589 465.16 455.969C465.5 460.059 469.41 461.869 472.83 459.769C474.517 458.736 475.373 456.869 475.4 454.169C475.453 449.056 475.453 444.113 475.4 439.339C475.4 439.059 475.537 438.919 475.81 438.919L481.68 438.899C481.96 438.899 482.1 439.039 482.1 439.319L482.27 464.849C482.27 465.336 482.027 465.583 481.54 465.589L477.48 465.649C476.68 465.663 476.33 465.272 476.43 464.479C476.523 463.772 476.473 463.099 476.28 462.459C476.127 461.959 475.883 461.912 475.55 462.319Z" fill="#61615F"/>
<path d="M495.71 438.919H489.89C489.63 438.919 489.42 439.129 489.42 439.389V465.149C489.42 465.409 489.63 465.619 489.89 465.619H495.71C495.97 465.619 496.18 465.409 496.18 465.149V439.389C496.18 439.129 495.97 438.919 495.71 438.919Z" fill="#61615F"/>
</svg>
